<svg width="32" height="29" fill="none" xmlns="http://www.w3.org/2000/svg"><path fill-rule="evenodd" clip-rule="evenodd" d="M26.399 1.91l-2.11 1.932a1.24 1.24 0 01-.194-.213c.7-.625 1.067-.975 1.27-1.27-1.38-1.6-4.177-2.501-7.157-1.177.064-.129 0-.165 0-.165a7.778 7.778 0 018.19.892zm.208-.191c-1.422-1.214-5.27-2.808-8.823-.666 0 0 .074.203 0 .35 3.264-.173 5.258 1.49 6.228 2.692l-1.177 1.077h-.01v.01l-.018.016.014.015-.135 1.165-.182.166-1.043.222s-2.269 2.49-3.918 4a382.25 382.25 0 01-2.535 2.29L3.803 2.838l.93-1.01a.915.915 0 00.24-.65.38.38 0 00-.02-.172A.918.918 0 003.38.584L.242 3.998a.918.918 0 00.56 1.533.38.38 0 00.161.006.915.915 0 00.632-.296L2.56 4.19l25.61 23.358L31.161 29l-1.752-2.81-12.482-11.384c.764-.756 1.58-1.554 2.213-2.142 1.637-1.522 4.225-3.844 4.225-3.844l.308-1.035-.003-.004.186-.17 1.165.005.035.038 3.802-3.482-1.79-1.956a2.356 2.356 0 00-.434-.474l-.024-.026-.003.003zM24.71 7.277l-1.08-.005-.628-.685.121-1.044 1.587 1.734zm-9.446 6.013l.519.473 7.053-6.647-.263-.29-.852.195s-2.136 2.333-3.86 3.916c-.73.67-1.709 1.555-2.597 2.353zM3.232 3.46l.373-.405L29.2 26.41l-.371.407L3.23 3.46zM4.32.882a.377.377 0 01.21-.117.518.518 0 00-.883-.221L.225 4.269a.518.518 0 00.295.861.377.377 0 01.098-.222l3.7-4.026zM28.327 27.41l.498-.552 1.935 1.817-2.433-1.265zM14.255 16.69l.382.415s.327-.332.823-.832l-1.193-1.081-.627.59a2.18 2.18 0 00-2.909.027l-9.97 9.094a2.18 2.18 0 002.938 3.221l9.97-9.094a2.18 2.18 0 00.586-2.34zm-1.063-.832l.007.008 1.027 1.126a.357.357 0 01-.023.505l-1.268-1.39L.597 27.36a1.306 1.306 0 01.085-1.845l10.672-9.734a1.306 1.306 0 011.78.018l.002-.002.056.061zm.258-1.407l.26.235-.69.618-.27-.228.7-.625zm13.691-7.265c-.18-.213-.475-.324-.69-.379l.533-.49c.16.035.46.131.716.387.368.368.423.883.423.883l1.465-1.304.092-.074c-.335.018-.622-.118-.876-.333-.366-.31-.387-.56-.406-.782a4.1 4.1 0 00-.006-.065l.323-.296c.031.22.11.536.308.738.325.332.925.404.95.407l.001-.002 1.485 1.622-2.517 2.305-1.485-1.622.037-.034-.034.03s-.01-.626-.319-.991z" fill="#2950A3"/></svg>